<svg width="19" height="15" viewBox="0 0 19 15" fill="none" xmlns="http://www.w3.org/2000/svg">
<path d="M16.7433 14.0105C16.6016 14.5443 16.1693 15 15.617 15H2.84457C2.29228 15 1.86 14.5443 1.71825 14.0106C1.56341 13.4274 1.27606 12.941 0.911521 12.633C0.489664 12.2766 0 11.8277 0 11.2754V3.72461C0 3.17232 0.489664 2.72345 0.911521 2.367C1.27606 2.05899 1.56341 1.57257 1.71825 0.989448C1.86 0.455663 2.29228 0 2.84457 0H15.617C16.1693 0 16.6015 0.455663 16.7433 0.989449C16.8981 1.57257 17.1855 2.05899 17.55 2.367C17.9719 2.72345 18.4615 3.17232 18.4615 3.72461V11.2753C18.4615 11.8253 17.9762 12.2725 17.5554 12.6267C17.1883 12.9356 16.8989 13.4244 16.7433 14.0105Z" fill="#D0BB86"/>
<path d="M11.2791 7.95322C11.2791 9.3269 10.5678 10.4305 9.36327 10.4305C8.80115 10.4305 8.4111 10.1605 8.4111 9.54998V7.19007H9.065V6.28602H8.4111V5.58157C8.4111 4.46619 7.90634 3.75 6.74768 3.75C6.63296 3.75 6.48382 3.76174 6.35763 3.77348V4.73623H6.58707C7.17214 4.73623 7.35569 4.99453 7.35569 5.61679V6.28602H6.34616V7.19007H7.35569V9.54998C7.35569 10.7593 8.17019 11.405 9.36327 11.405C11.325 11.405 12.3001 9.73783 12.3001 7.95322C12.3001 6.75566 11.5544 6.07469 10.5678 6.07469C10.1319 6.07469 9.73037 6.23906 9.48946 6.46214L10.0057 7.29573C10.1319 7.16659 10.3384 7.0844 10.5334 7.0844C11.0267 7.0844 11.2791 7.42488 11.2791 7.95322Z" fill="white"/>
</svg>
