<svg width="319" height="171" viewBox="0 0 319 171" fill="none" xmlns="http://www.w3.org/2000/svg">
    <path opacity="0.1" d="M30.6006 70.6458C22.0413 119.74 70.7362 134.375 101.913 134.73C133.046 135.129 154.777 117.345 181.209 131.581C207.641 145.817 263.342 143.865 272.212 102.399C281.082 60.9334 228.041 -20.8899 154.954 5.14276C81.8677 31.1754 39.7808 18.0926 30.6006 70.6458Z" fill="#079C49"/>
    <path d="M206.621 76.9431H75.925V146.837H206.621V76.9431Z" fill="white"/>
    <path opacity="0.3" d="M206.621 76.9431H75.925V146.837H206.621V76.9431Z" fill="#079C49"/>
    <path d="M254.517 69.0937L252.921 70.4685H66.8779V65.8562L68.8736 62.3526L81.1582 57.2526H234.649C234.649 57.2526 245.736 56.2769 252.61 65.8562L254.517 69.0937Z" fill="#3F3D56"/>
    <path d="M98.942 65.8118H66.8779V69.0936H98.942V65.8118Z" fill="#079C49"/>
    <path d="M86.2583 59.3811C92.3784 59.3811 97.922 61.8203 102.002 65.8117H105.639C100.982 60.2681 94.0193 56.7202 86.2583 56.7202C78.4973 56.7202 71.5345 60.2681 66.8779 65.8117H70.5145C74.5946 61.8647 80.1382 59.3811 86.2583 59.3811Z" fill="#079C49"/>
    <path d="M82.6216 59.3811C88.7417 59.3811 94.2853 61.8203 98.3654 65.8117H102.002C97.3453 60.2681 90.3826 56.7202 82.6216 56.7202C74.8606 56.7202 67.8978 60.2681 63.2412 65.8117H66.8778C70.9579 61.8647 76.5015 59.3811 82.6216 59.3811Z" fill="#079C49"/>
    <path opacity="0.3" d="M82.6216 59.3811C88.7417 59.3811 94.2853 61.8203 98.3654 65.8117H102.002C97.3453 60.2681 90.3826 56.7202 82.6216 56.7202C74.8606 56.7202 67.8978 60.2681 63.2412 65.8117H66.8778C70.9579 61.8647 76.5015 59.3811 82.6216 59.3811Z" fill="white"/>
    <path d="M267.112 122.312C267.112 135.617 259.218 140.273 249.417 140.273C239.66 140.273 231.722 135.617 231.722 122.312C231.722 109.008 249.417 92.0664 249.417 92.0664C249.417 92.0664 267.112 109.008 267.112 122.312Z" fill="#079C49"/>
    <path opacity="0.15" d="M267.112 122.312C267.112 135.617 259.218 140.273 249.417 140.273C239.66 140.273 231.722 135.617 231.722 122.312C231.722 109.008 249.417 92.0664 249.417 92.0664C249.417 92.0664 267.112 109.008 267.112 122.312Z" fill="black"/>
    <path d="M248.796 138.233L248.974 127.102L256.513 113.309L248.974 125.372L249.062 120.361L254.251 110.382L249.107 119.03L249.24 110.027L254.783 102.089L249.24 108.608L249.328 92.0662L248.796 113.93L248.84 113.043L243.164 104.395L248.752 114.773L248.22 124.84L248.175 124.574L241.656 115.482L248.175 125.505L248.087 126.791V126.88L246.756 152.425H248.53L248.752 139.253L255.227 129.23L248.796 138.233Z" fill="#403D56"/>
    <path d="M319 112.156C319 133.266 306.449 140.628 290.972 140.628C275.494 140.628 262.943 133.266 262.943 112.156C262.943 91.0462 290.972 64.1709 290.972 64.1709C290.972 64.1709 319 91.0462 319 112.156Z" fill="#079C49"/>
    <path d="M289.907 137.39L290.218 119.74L302.147 97.8756L290.262 116.946L290.395 109.007L298.6 93.1747L290.439 106.923L290.661 92.6425L299.487 80.0475L290.706 90.3807L290.839 64.1707L289.907 98.8513L289.996 97.4322L281.038 83.7284L289.863 100.182L289.02 116.147L288.976 115.704L278.643 101.29L288.976 117.212L288.843 119.207V119.252V119.385L286.714 159.875H289.552L289.907 138.987L300.196 123.066L289.907 137.39Z" fill="#403D56"/>
    <path d="M98.3652 65.8118V70.424H101.647L103.244 69.0936V65.8118H98.3652Z" fill="#079C49"/>
    <path opacity="0.3" d="M98.3652 65.8118V70.424H101.647L103.244 69.0936V65.8118H98.3652Z" fill="white"/>
    <path d="M254.517 65.8118H103.244V69.0936H254.517V65.8118Z" fill="#079C49"/>
    <path d="M66.8777 65.8118H62.0437V69.0936L63.6403 70.424H66.8777V65.8118Z" fill="#079C49"/>
    <path d="M66.8777 70.424V65.8118H62.0437" fill="#079C49"/>
    <path opacity="0.3" d="M66.8777 70.424V65.8118H62.0437V69.0936L63.6403 70.424H66.8777Z" fill="white"/>
    <path d="M76.9893 70.4243H69.9822V151.937H76.9893V70.4243Z" fill="#3F3D56"/>
    <path d="M73.0425 75.7903H105.195V70.4241H111.892V75.7903L106.792 80.8903H73.0425V75.7903Z" fill="#3F3D56"/>
    <path opacity="0.3" d="M69.9822 70.4243V72.6861L73.4857 73.7505V151.937H76.9893V70.4243H69.9822Z" fill="#231F20"/>
    <path opacity="0.3" d="M105.195 70.4241V72.8189L108.61 73.8833V75.6572L103.554 80.8903H106.792L111.892 75.7903V70.4241H105.195Z" fill="#231F20"/>
    <path d="M211.499 70.4243H204.492V151.937H211.499V70.4243Z" fill="#3F3D56"/>
    <path d="M207.596 75.7903H239.749V70.4241H246.445V75.7903L241.345 80.8903H207.596V75.7903Z" fill="#3F3D56"/>
    <path opacity="0.3" d="M204.492 70.4243V72.6861L207.995 73.7505V151.937H211.543V70.4243H204.492Z" fill="#231F20"/>
    <path opacity="0.3" d="M239.749 70.4241V72.8189L243.119 73.8833V75.6572L238.064 80.8903H241.346L246.446 75.7903V70.4241H239.749Z" fill="#231F20"/>
    <path d="M105.018 82.3538H75.1709V141.737H105.018V82.3538Z" fill="#079C49"/>
    <path opacity="0.3" d="M102.312 84.6157H77.9205V139.431H102.312V84.6157Z" fill="white"/>
    <path d="M95.8373 108.032C95.3494 106.08 93.5755 104.484 91.3581 104.04C89.4954 103.641 87.5441 103.996 86.0806 105.016C84.6171 106.036 83.7301 107.499 83.7301 109.14C83.7301 109.761 84.3066 110.249 84.9719 110.249C85.6814 110.249 86.258 109.761 86.258 109.185C86.258 108.209 86.7902 107.322 87.6771 106.746C88.5641 106.125 89.6728 105.947 90.8259 106.169C92.112 106.435 93.1764 107.366 93.4425 108.52C93.7086 109.628 93.3538 110.693 92.4668 111.447C89.9833 113.664 88.5641 116.369 88.5198 119.208V119.961C88.5198 120.582 89.0963 121.07 89.7615 121.07C90.4711 121.07 91.0476 120.582 91.0476 120.006V119.252C91.092 116.99 92.2007 114.773 94.2407 112.999C95.6599 111.668 96.2808 109.806 95.8373 108.032ZM89.8946 122.046C89.1406 122.046 88.5641 122.667 88.5198 123.421C88.5198 124.175 89.1406 124.795 89.8502 124.84C90.6041 124.84 91.1807 124.219 91.225 123.465C91.225 122.667 90.6485 122.09 89.8946 122.046Z" fill="#F1F2F2"/>
    <g opacity="0.1">
        <g opacity="0.1">
            <path opacity="0.1" d="M89.7174 121.026C90.0278 121.026 90.2939 120.937 90.5157 120.804C89.8504 120.76 89.3182 120.316 89.3182 119.696V118.942C89.3626 116.103 90.7374 113.354 93.2653 111.181C94.1523 110.427 94.507 109.362 94.2409 108.254C93.9305 107.101 92.9105 106.169 91.6244 105.903C90.7374 105.726 89.9391 105.814 89.1408 106.125C89.6287 106.036 90.2052 106.036 90.7374 106.169C92.0235 106.435 93.0879 107.367 93.354 108.52C93.6201 109.628 93.2653 110.693 92.3783 111.447C89.8948 113.664 88.4756 116.369 88.4313 119.208V119.962C88.4756 120.494 89.0078 121.026 89.7174 121.026Z" fill="black"/>
        </g>
        <g opacity="0.1">
            <path opacity="0.1" d="M84.573 108.874C84.6174 107.233 85.46 105.725 86.9235 104.75C87.367 104.439 87.8548 104.218 88.3426 103.996C87.5 104.173 86.7461 104.484 86.0365 104.972C84.573 105.992 83.686 107.455 83.686 109.096C83.686 109.717 84.2626 110.205 84.9278 110.205C85.2382 110.205 85.5043 110.116 85.7261 109.983C85.1052 109.939 84.573 109.451 84.573 108.874Z" fill="black"/>
        </g>
        <g opacity="0.1">
            <path opacity="0.1" d="M89.4069 123.11C89.4069 122.667 89.6286 122.268 89.9391 122.046H89.8947C89.1408 122.046 88.5642 122.667 88.5199 123.421C88.5199 124.175 89.1408 124.796 89.8504 124.84C90.1608 124.84 90.4712 124.751 90.693 124.529C89.9391 124.485 89.4069 123.864 89.4069 123.11Z" fill="black"/>
        </g>
    </g>
    <path d="M108.521 82.3538H105.018V141.737H108.521V82.3538Z" fill="#079C49"/>
    <path opacity="0.2" d="M108.521 82.3538H105.018V141.737H108.521V82.3538Z" fill="#231F20"/>
    <path d="M100.006 141.737H83.6416V151.937H100.006V141.737Z" fill="#079C49"/>
    <path opacity="0.2" d="M83.6416 141.737V142.712L98.5871 143.777V151.937H100.006V141.737H83.6416Z" fill="#231F20"/>
    <path opacity="0.3" d="M66.8779 65.8118V70.4241H98.4098V65.8118C98.4098 65.8118 92.6445 59.47 82.6661 59.3813C72.6876 59.2926 66.8779 65.8118 66.8779 65.8118Z" fill="#231F20"/>
    <path d="M121.781 70.4238H114.774V151.937H121.781V70.4238Z" fill="#3F3D56"/>
    <path opacity="0.3" d="M114.774 70.4238V72.6856L118.278 73.75V151.937H121.781V70.4238H114.774Z" fill="#231F20"/>
    <path d="M166.574 70.4238H159.567V151.937H166.574V70.4238Z" fill="#3F3D56"/>
    <path opacity="0.3" d="M159.567 70.4238V72.6856L163.114 73.75V151.937H166.618V70.4238H159.567Z" fill="#231F20"/>
    <path d="M129.764 132.423H118.278V135.927H129.764V132.423Z" fill="#079C49"/>
    <path d="M222.364 132.423H129.764V135.927H222.364V132.423Z" fill="#079C49"/>
    <path opacity="0.2" d="M222.364 132.423H129.764V135.927H222.364V132.423Z" fill="#231F20"/>
    <path d="M91.2252 159.92H0V155.13C0 153.356 1.41916 151.937 3.1931 151.937H91.2252V159.92Z" fill="#3F3D56"/>
    <path d="M283.166 159.92H55.7019V155.13C55.7019 153.356 57.1211 151.937 58.895 151.937H280.594C282.013 151.937 283.166 153.09 283.166 154.509V159.92Z" fill="#3F3D56"/>
    <path opacity="0.3" d="M283.166 159.92H55.7019V155.13C55.7019 153.356 57.1211 151.937 58.895 151.937H280.594C282.013 151.937 283.166 153.09 283.166 154.509V159.92Z" fill="white"/>
    <path d="M54.4159 102.71H17.6065C15.3004 102.71 13.4377 100.847 13.4377 98.541V61.2882C13.4377 58.982 15.3004 57.1194 17.6065 57.1194H54.4159C56.722 57.1194 58.5847 58.982 58.5847 61.2882V98.541C58.5847 100.847 56.722 102.71 54.4159 102.71Z" fill="#079C49"/>
    <path opacity="0.2" d="M51.1783 99.4282H20.8438C18.5377 99.4282 16.675 97.5656 16.675 95.2594V64.5701C16.675 62.264 18.5377 60.4014 20.8438 60.4014H51.1783C53.4844 60.4014 55.3471 62.264 55.3471 64.5701V95.2594C55.3471 97.5656 53.4844 99.4282 51.1783 99.4282Z" fill="white"/>
    <path d="M38.4059 102.71H33.6162V151.937H38.4059V102.71Z" fill="#079C49"/>
    <path opacity="0.3" d="M33.6162 102.71H38.4059V110.604C38.4059 110.604 37.1641 106.346 33.6162 106.657V102.71Z" fill="#231F20"/>
    <path opacity="0.3" d="M140.63 79.959L124.043 96.5454V79.959H140.63Z" fill="white"/>
    <path opacity="0.3" d="M150.519 79.959H154.866L123.91 110.87V105.947L150.519 79.959Z" fill="white"/>
    <path d="M189.945 83.7729H169.279V115.704H189.945V83.7729Z" fill="#F1F2F2"/>
    <path d="M201.166 83.7729H192.429V96.1462H201.166V83.7729Z" fill="#F1F2F2"/>
    <path opacity="0.05" d="M187.905 84.926H171.319V90.1592H187.905V84.926Z" fill="#231F20"/>
    <path opacity="0.05" d="M174.689 92.0662H171.319V114.329H174.689V92.0662Z" fill="#231F20"/>
    <path opacity="0.05" d="M179.08 92.0662H175.709V114.329H179.08V92.0662Z" fill="#231F20"/>
    <path opacity="0.05" d="M183.47 103.198H180.1V114.329H183.47V103.198Z" fill="#231F20"/>
    <path opacity="0.05" d="M187.905 92.0662H180.1V101.956H187.905V92.0662Z" fill="#231F20"/>
    <path opacity="0.05" d="M200.146 85.0146H193.36V94.9044H200.146V85.0146Z" fill="#231F20"/>
    <path opacity="0.05" d="M187.861 103.198H184.49V114.329H187.861V103.198Z" fill="#231F20"/>
    <path opacity="0.1" d="M101.958 166.661C103.99 166.661 105.638 166.383 105.638 166.04C105.638 165.697 103.99 165.419 101.958 165.419C99.9246 165.419 98.2766 165.697 98.2766 166.04C98.2766 166.383 99.9246 166.661 101.958 166.661Z" fill="black"/>
    <path opacity="0.1" d="M295.14 162.048C297.761 162.048 299.886 161.691 299.886 161.25C299.886 160.809 297.761 160.452 295.14 160.452C292.52 160.452 290.395 160.809 290.395 161.25C290.395 161.691 292.52 162.048 295.14 162.048Z" fill="black"/>
    <path d="M297.313 160.363C297.58 160.141 297.757 159.875 297.846 159.52C297.934 159.21 297.757 158.811 297.447 158.678C297.092 158.545 296.737 158.767 296.426 159.033C296.16 159.299 295.806 159.565 295.451 159.52C295.85 159.166 296.027 158.634 295.894 158.146C295.894 158.057 295.85 157.924 295.761 157.88C295.584 157.658 295.229 157.747 294.963 157.924C294.209 158.456 294.032 159.432 294.032 160.363C293.943 160.053 294.032 159.698 294.032 159.387C294.032 159.077 293.943 158.678 293.677 158.5C293.499 158.412 293.322 158.367 293.1 158.367C292.79 158.367 292.391 158.367 292.169 158.634C291.903 158.944 291.947 159.432 292.213 159.787C292.479 160.141 292.834 160.319 293.189 160.541C293.455 160.718 293.677 160.94 293.854 161.206C293.854 161.25 293.899 161.294 293.899 161.339H295.983C296.471 160.984 296.914 160.718 297.313 160.363Z" fill="#079D49"/>
    <path d="M103.998 165.197C104.264 164.975 104.441 164.709 104.53 164.399C104.619 164.088 104.486 163.734 104.175 163.6C103.82 163.467 103.465 163.689 103.199 163.955C102.933 164.177 102.623 164.443 102.268 164.399C102.623 164.044 102.8 163.556 102.712 163.068C102.712 162.98 102.667 162.891 102.579 162.802C102.401 162.58 102.046 162.669 101.825 162.847C101.115 163.334 100.893 164.31 100.893 165.197C100.805 164.887 100.893 164.576 100.893 164.221C100.893 163.911 100.805 163.556 100.538 163.379C100.361 163.29 100.184 163.246 100.006 163.246C99.6959 163.246 99.3411 163.246 99.1193 163.512C98.8532 163.822 98.8976 164.31 99.1637 164.62C99.3854 164.931 99.7402 165.153 100.095 165.374C100.361 165.552 100.583 165.729 100.76 165.995C100.76 166.04 100.805 166.084 100.805 166.128H102.8C103.244 165.818 103.643 165.507 103.998 165.197Z" fill="#079D49"/>
    <path opacity="0.1" d="M87.8991 170.341C89.932 170.341 91.58 170.063 91.58 169.72C91.58 169.378 89.932 169.1 87.8991 169.1C85.8662 169.1 84.2181 169.378 84.2181 169.72C84.2181 170.063 85.8662 170.341 87.8991 170.341Z" fill="black"/>
    <path d="M89.9834 168.878C90.2495 168.656 90.4269 168.39 90.5156 168.08C90.6043 167.769 90.4712 167.414 90.1608 167.281C89.806 167.148 89.4512 167.37 89.1851 167.636C88.919 167.858 88.6086 168.124 88.2538 168.08C88.6086 167.725 88.786 167.237 88.6973 166.749C88.6973 166.66 88.6529 166.572 88.5642 166.483C88.3868 166.261 88.0321 166.35 87.8103 166.527C87.1007 167.015 86.879 167.991 86.879 168.878C86.7903 168.568 86.879 168.257 86.879 167.902C86.879 167.592 86.7903 167.237 86.5242 167.06C86.3468 166.971 86.1694 166.927 85.992 166.927C85.6816 166.927 85.3268 166.927 85.105 167.193C84.839 167.503 84.8833 167.991 85.1494 168.301C85.3711 168.612 85.7259 168.834 86.0807 169.055C86.3468 169.233 86.5685 169.41 86.7459 169.676C86.7459 169.721 86.7903 169.765 86.7903 169.809H88.786C89.1851 169.499 89.6286 169.188 89.9834 168.878Z" fill="#079D49"/>
    <path d="M244.893 28.6918C244.893 28.6918 237.354 28.2483 238.241 33.5258C238.241 33.5258 238.064 34.4571 238.906 34.9006C238.906 34.9006 238.906 34.5015 239.66 34.6345C239.926 34.6789 240.192 34.6789 240.458 34.6789C240.813 34.6345 241.168 34.5015 241.478 34.2797C241.478 34.2797 243.607 33.3928 244.405 29.9336C244.405 29.9336 245.026 29.1796 244.982 29.0022L243.696 29.5344C243.696 29.5344 244.139 30.4657 243.785 31.2197C243.785 31.2197 243.74 29.5788 243.519 29.6231C243.474 29.6231 242.853 29.9336 242.853 29.9336C242.853 29.9336 243.607 31.5301 243.031 32.6832C243.031 32.6832 243.252 30.7318 242.632 30.0223L241.745 30.5544C241.745 30.5544 242.632 32.1953 242.011 33.5702C242.011 33.5702 242.144 31.4858 241.523 30.6875L240.725 31.3084C240.725 31.3084 241.567 32.9493 241.035 34.058C241.035 34.058 240.991 31.6632 240.547 31.4858C240.547 31.4858 239.838 32.1066 239.749 32.3727C239.749 32.3727 240.325 33.5701 239.971 34.191C239.971 34.191 239.749 32.5945 239.571 32.5945C239.571 32.5945 238.862 33.6588 238.773 34.3684C238.773 34.3684 238.818 33.3041 239.394 32.4614C239.394 32.4614 238.729 32.5945 238.33 33.038C238.33 33.038 238.418 32.284 239.571 32.2397C239.571 32.2397 240.148 31.4414 240.325 31.3971C240.325 31.3971 239.172 31.3084 238.507 31.6188C238.507 31.6188 239.128 30.9092 240.547 31.2197L241.345 30.5544C241.345 30.5544 239.838 30.3327 239.217 30.5544C239.217 30.5544 239.971 29.9336 241.567 30.377L242.454 29.8449C242.454 29.8449 241.168 29.5788 240.414 29.6675C240.414 29.6675 241.212 29.224 242.72 29.7118L243.341 29.4457C243.341 29.4457 242.41 29.2683 242.144 29.224C241.878 29.1796 241.833 29.1353 241.833 29.1353C242.41 29.0466 243.031 29.0909 243.607 29.3127C243.607 29.224 244.938 28.7361 244.893 28.6918Z" fill="#079D49"/>
    <path d="M194.07 38.1825C194.07 38.1825 192.34 34.5903 190.123 36.3642C190.123 36.3642 189.635 36.5416 189.679 37.0294C189.679 37.0294 189.857 36.9407 189.99 37.3399C190.034 37.4729 190.123 37.606 190.167 37.739C190.256 37.9164 190.433 38.0051 190.611 38.0938C190.611 38.0938 191.542 38.8477 193.36 38.3156C193.36 38.3156 193.848 38.4042 193.937 38.3599L193.36 37.9164C193.36 37.9164 193.05 38.3599 192.606 38.4042C192.606 38.4042 193.36 37.9608 193.271 37.8721L192.961 37.6503C192.961 37.6503 192.429 38.4042 191.719 38.4486C191.719 38.4486 192.695 38.0495 192.828 37.5616L192.34 37.2955C192.34 37.2955 191.808 38.1382 191.054 38.1825C191.054 38.1825 192.03 37.739 192.251 37.2068L191.764 36.9851C191.764 36.9851 191.231 37.7834 190.566 37.8277C190.566 37.8277 191.675 37.1625 191.631 36.9407C191.631 36.9407 191.143 36.7633 191.01 36.8077C191.01 36.8077 190.611 37.3842 190.256 37.3842C190.256 37.3842 190.921 36.852 190.877 36.8077C190.877 36.8077 190.211 36.7633 189.857 36.8964C189.857 36.8964 190.344 36.6303 190.877 36.6747C190.877 36.6747 190.655 36.4086 190.344 36.3199C190.344 36.3199 190.699 36.1868 191.054 36.6747C191.054 36.6747 191.586 36.719 191.631 36.8077C191.631 36.8077 191.364 36.2755 191.054 36.0094C191.054 36.0094 191.542 36.0981 191.764 36.852L192.251 37.0738C192.251 37.0738 191.941 36.3199 191.675 36.0981C191.675 36.0981 192.163 36.2755 192.34 37.1181L192.784 37.3842C192.784 37.3842 192.562 36.719 192.34 36.4086C192.34 36.4086 192.739 36.6746 192.917 37.4729L193.227 37.6947C193.227 37.6947 193.05 37.2068 193.005 37.0738C192.961 36.9407 192.961 36.8964 192.961 36.8964C193.138 37.1625 193.271 37.4286 193.316 37.739C193.493 37.739 194.07 38.2269 194.07 38.1825Z" fill="#079D49"/>
    <path d="M52.509 107.056C52.509 107.056 51.5777 110.914 54.416 110.959C54.416 110.959 54.9038 111.136 55.1699 110.737C55.1699 110.737 54.9482 110.692 55.1256 110.293C55.1699 110.16 55.2143 110.027 55.2143 109.85C55.2143 109.672 55.2143 109.451 55.0812 109.273C55.0812 109.273 54.8151 108.076 53.0855 107.322C53.0855 107.322 52.7308 106.923 52.6421 106.923L52.8194 107.632C52.8194 107.632 53.3516 107.499 53.7064 107.721C53.7064 107.721 52.8638 107.588 52.8638 107.721C52.8638 107.765 52.9525 108.076 52.9525 108.076C52.9525 108.076 53.8395 107.854 54.416 108.253C54.416 108.253 53.396 107.943 52.9968 108.209L53.1742 108.741C53.1742 108.741 54.1056 108.431 54.7708 108.874C54.7708 108.874 53.7064 108.608 53.2186 108.83L53.4847 109.318C53.4847 109.318 54.416 109.052 54.9482 109.406C54.9482 109.406 53.7064 109.229 53.5734 109.406C53.5734 109.406 53.8395 109.85 53.9725 109.894C53.9725 109.894 54.6377 109.717 54.9482 109.939C54.9482 109.939 54.1056 109.894 54.0612 109.983C54.0612 109.983 54.549 110.426 54.9038 110.559C54.9038 110.559 54.3273 110.426 53.9725 110.072C53.9725 110.072 53.9725 110.426 54.1499 110.692C54.1499 110.692 53.7508 110.559 53.8395 109.983C53.8395 109.983 53.4847 109.584 53.4847 109.539C53.4847 109.539 53.3516 110.116 53.4403 110.515C53.4403 110.515 53.1299 110.116 53.4403 109.406L53.1742 108.919C53.1742 108.919 52.9081 109.672 52.9968 110.027C52.9968 110.027 52.7308 109.584 53.1299 108.786L52.9525 108.298C52.9525 108.298 52.6864 108.919 52.6864 109.362C52.6864 109.362 52.5534 108.919 52.9081 108.165L52.8194 107.81C52.8194 107.81 52.6421 108.298 52.5977 108.431C52.5534 108.564 52.509 108.564 52.509 108.564C52.509 108.253 52.5977 107.943 52.7751 107.677C52.6864 107.81 52.5534 107.056 52.509 107.056Z" fill="#079D49"/>
    <path d="M262.367 7.18264C262.367 7.18264 261.081 3.54605 258.774 5.00955C258.774 5.00955 258.287 5.09825 258.287 5.58609C258.287 5.58609 258.464 5.49739 258.553 5.89653C258.597 6.02957 258.641 6.16262 258.686 6.29567C258.774 6.47306 258.907 6.60611 259.085 6.6948C259.085 6.6948 259.928 7.53743 261.746 7.22699C261.746 7.22699 262.234 7.36004 262.322 7.31569L261.79 6.82785C261.79 6.82785 261.435 7.22699 260.992 7.22699C260.992 7.22699 261.746 6.8722 261.701 6.7835L261.435 6.51741C261.435 6.51741 260.815 7.18264 260.149 7.13829C260.149 7.13829 261.125 6.82785 261.302 6.42871L260.859 6.11827C260.859 6.11827 260.238 6.8722 259.484 6.82785C259.484 6.82785 260.504 6.47306 260.77 6.02957L260.327 5.76348C260.327 5.76348 259.706 6.47306 259.085 6.47306C259.085 6.47306 260.194 5.94088 260.194 5.71914C260.194 5.71914 259.75 5.49739 259.617 5.49739C259.617 5.49739 259.174 5.98523 258.819 5.94088C258.819 5.94088 259.528 5.54174 259.484 5.45304C259.484 5.45304 258.819 5.31999 258.464 5.45304C258.464 5.45304 258.996 5.2313 259.484 5.36434C259.484 5.36434 259.307 5.0539 258.996 4.96521C258.996 4.96521 259.351 4.87651 259.617 5.40869C259.617 5.40869 260.105 5.54174 260.149 5.58609C260.149 5.58609 259.972 5.00955 259.661 4.74346C259.661 4.74346 260.105 4.87651 260.238 5.63044L260.726 5.89653C260.726 5.89653 260.504 5.1426 260.282 4.87651C260.282 4.87651 260.726 5.09825 260.815 5.94088L261.214 6.25132C261.214 6.25132 261.081 5.58609 260.903 5.2313C260.903 5.2313 261.258 5.54174 261.347 6.34001L261.613 6.56176C261.613 6.56176 261.524 6.07392 261.48 5.94088C261.435 5.80783 261.48 5.76348 261.48 5.76348C261.657 6.02958 261.746 6.34002 261.746 6.65046C261.835 6.69481 262.367 7.22699 262.367 7.18264Z" fill="#079D49"/>
    <path d="M145.996 49.2254C145.996 49.2254 141.738 47.8949 141.517 51.0437C141.517 51.0437 141.295 51.5315 141.694 51.9307C141.694 51.9307 141.738 51.7089 142.182 51.8863C142.315 51.9307 142.492 51.975 142.625 52.0194C142.847 52.0637 143.069 52.0194 143.246 51.9307C143.246 51.9307 144.577 51.7533 145.552 49.8906C145.552 49.8906 145.996 49.5358 146.04 49.4471L145.242 49.5802C145.242 49.5802 145.375 50.1567 145.065 50.5558C145.065 50.5558 145.286 49.6245 145.109 49.5802C145.065 49.5802 144.665 49.6689 144.665 49.6689C144.665 49.6689 144.843 50.6889 144.399 51.2654C144.399 51.2654 144.798 50.1567 144.532 49.7132L143.956 49.8906C143.956 49.8906 144.222 50.955 143.69 51.6202C143.69 51.6202 144.089 50.4672 143.823 49.935L143.291 50.2011C143.291 50.2011 143.512 51.2654 143.069 51.7976C143.069 51.7976 143.379 50.4228 143.158 50.2454C143.158 50.2454 142.67 50.5115 142.581 50.6446C142.581 50.6446 142.714 51.3985 142.448 51.7089C142.448 51.7089 142.537 50.7776 142.448 50.7332C142.448 50.7332 141.916 51.2211 141.738 51.6646C141.738 51.6646 141.916 51.0437 142.359 50.6889C142.359 50.6889 141.96 50.6446 141.65 50.8663C141.65 50.8663 141.827 50.4672 142.492 50.6002C142.492 50.6002 142.936 50.2454 143.024 50.2011C143.024 50.2011 142.404 49.9793 141.96 50.068C141.96 50.068 142.404 49.7576 143.202 50.1567L143.734 49.8906C143.734 49.8906 142.891 49.5802 142.492 49.5802C142.492 49.5802 142.98 49.3141 143.867 49.8019L144.444 49.6245C144.444 49.6245 143.734 49.2697 143.291 49.2254C143.291 49.2254 143.823 49.0923 144.577 49.5802L144.976 49.4915C144.976 49.4915 144.488 49.2697 144.311 49.181C144.178 49.1367 144.178 49.0923 144.178 49.0923C144.532 49.1367 144.887 49.2254 145.153 49.4471C145.153 49.4028 145.996 49.3141 145.996 49.2254Z" fill="#079D49"/>
    <path d="M265.294 66.8316C265.294 66.8316 265.028 71.2665 268.132 70.7343C268.132 70.7343 268.664 70.823 268.93 70.3352C268.93 70.3352 268.709 70.3352 268.797 69.8917C268.842 69.7143 268.842 69.5812 268.842 69.4038C268.842 69.1821 268.753 68.9604 268.62 68.8273C268.62 68.8273 268.088 67.5856 266.092 67.0977C266.092 67.0977 265.648 66.7429 265.515 66.7429L265.826 67.4969C265.826 67.4969 266.358 67.2308 266.802 67.4525C266.802 67.4525 265.826 67.4525 265.87 67.6299C265.87 67.6742 266.048 68.029 266.048 68.029C266.048 68.029 266.979 67.5856 267.689 67.9403C267.689 67.9403 266.535 67.8073 266.136 68.1621L266.447 68.6943C266.447 68.6943 267.422 68.1621 268.221 68.5169C268.221 68.5169 267.023 68.4282 266.535 68.783L266.89 69.2708C266.89 69.2708 267.866 68.783 268.487 69.0934C268.487 69.0934 267.068 69.1377 266.979 69.3595C266.979 69.3595 267.334 69.7586 267.511 69.8473C267.511 69.8473 268.221 69.5369 268.575 69.7143C268.575 69.7143 267.644 69.8473 267.644 69.936C267.644 69.936 268.265 70.3352 268.709 70.3795C268.709 70.3795 268.088 70.3795 267.6 70.0247C267.6 70.0247 267.689 70.4239 267.91 70.6456C267.91 70.6456 267.467 70.6013 267.422 69.8917C267.422 69.8917 266.935 69.5369 266.935 69.4482C266.935 69.4482 266.89 70.1134 267.068 70.5126C267.068 70.5126 266.668 70.1578 266.846 69.3152L266.447 68.8273C266.447 68.8273 266.314 69.7143 266.447 70.0691C266.447 70.0691 266.092 69.6256 266.358 68.6943L266.048 68.1621C266.048 68.1621 265.87 68.916 265.959 69.3595C265.959 69.3595 265.693 68.8717 266.003 68.029L265.826 67.6742C265.826 67.6742 265.737 68.2064 265.693 68.3838C265.693 68.5612 265.648 68.5612 265.648 68.5612C265.604 68.2064 265.648 67.8516 265.781 67.5412C265.604 67.5856 265.338 66.7873 265.294 66.8316Z" fill="#079D49"/>
    <path d="M44.8364 68.6055H27.1857C25.8109 68.6055 24.7021 69.7142 24.7021 71.089V86.6554C24.7021 88.0302 25.8109 89.1389 27.1857 89.1389H44.8364C46.2113 89.1389 47.32 88.0302 47.32 86.6554V71.089C47.3643 69.7585 46.2113 68.6055 44.8364 68.6055ZM28.3387 87.365C27.5848 87.365 27.0083 86.7441 27.0083 86.0345C27.0083 85.3249 27.6292 84.704 28.3387 84.704C29.0927 84.704 29.6692 85.3249 29.6692 86.0345C29.6692 86.7441 29.0927 87.365 28.3387 87.365ZM43.9938 87.365C43.2399 87.365 42.6634 86.7441 42.6634 86.0345C42.6634 85.3249 43.2842 84.704 43.9938 84.704C44.7477 84.704 45.3243 85.3249 45.3243 86.0345C45.3243 86.7441 44.7477 87.365 43.9938 87.365ZM45.1912 78.7613C45.1912 79.5152 44.5704 80.1361 43.8164 80.1361H28.2057C27.4518 80.1361 26.8309 79.5152 26.8309 78.7613V71.976C26.8309 71.222 27.4518 70.6012 28.2057 70.6012H43.8164C44.5704 70.6012 45.1912 71.222 45.1912 71.976V78.7613Z" fill="white"/>
    <path d="M29.3587 92.9971H28.7822C27.9839 92.9971 27.363 92.3318 27.363 91.5779V90.0701H30.8222V91.5779C30.7779 92.3762 30.157 92.9971 29.3587 92.9971Z" fill="white"/>
    <path d="M43.2843 92.9971H42.7077C41.9095 92.9971 41.2886 92.3318 41.2886 91.5779V90.0701H44.7478V91.5779C44.7034 92.3762 44.0825 92.9971 43.2843 92.9971Z" fill="white"/>
    <path d="M23.5935 77.3868H22.9726C22.7509 77.3868 22.5735 77.2094 22.5735 76.9876V73.4841C22.5735 73.2624 22.7509 73.085 22.9726 73.085H23.5935C23.8153 73.085 23.9926 73.2624 23.9926 73.4841V76.9876C23.9926 77.2094 23.8153 77.3868 23.5935 77.3868Z" fill="white"/>
    <path d="M49.0054 77.3868H48.3845C48.1627 77.3868 47.9854 77.2094 47.9854 76.9876V73.4841C47.9854 73.2624 48.1627 73.085 48.3845 73.085H49.0054C49.2271 73.085 49.4045 73.2624 49.4045 73.4841V76.9876C49.3602 77.2094 49.1828 77.3868 49.0054 77.3868Z" fill="white"/>
</svg>