<svg width="48" height="44" viewBox="0 0 48 44" fill="none" xmlns="http://www.w3.org/2000/svg">
<path d="M21.5118 43.2971C33.2973 43.2971 42.8513 33.7205 42.8513 21.9072C42.8513 10.0938 33.2973 0.517242 21.5118 0.517242C9.72637 0.517242 0.172363 10.0938 0.172363 21.9072C0.172363 33.7205 9.72637 43.2971 21.5118 43.2971Z" fill="white"/>
<path d="M21.5118 43.2971C33.2973 43.2971 42.8513 33.7205 42.8513 21.9072C42.8513 10.0938 33.2973 0.517242 21.5118 0.517242C9.72637 0.517242 0.172363 10.0938 0.172363 21.9072C0.172363 33.7205 9.72637 43.2971 21.5118 43.2971Z" fill="white"/>
<path d="M21.5118 43.2971C33.2973 43.2971 42.8513 33.7205 42.8513 21.9072C42.8513 10.0938 33.2973 0.517242 21.5118 0.517242C9.72637 0.517242 0.172363 10.0938 0.172363 21.9072C0.172363 33.7205 9.72637 43.2971 21.5118 43.2971Z" fill="white"/>
<path d="M1.63123 14.1366C9.75857 11.8598 18.136 10.1469 26.4092 8.89357C29.285 8.45491 32.1192 8.41314 35.0158 8.35047C37.7874 8.24603 40.3715 9.81267 41.601 12.2984L42.643 14.4082C42.643 14.4082 44.6436 13.9695 45.3521 14.0322C46.7484 14.1366 47.6236 16.5179 47.7486 18.5023C47.8528 20.4867 45.8731 20.7374 45.4146 19.3379C44.977 17.9383 44.7686 16.7895 46.1232 16.685C46.1232 16.685 46.0607 14.8886 43.3307 15.8286C43.3307 15.8286 45.2688 21.3432 45.8106 23.8498C46.3524 26.3355 46.3107 31.7666 45.5605 33.6257C44.3102 36.5292 33.9322 36.8216 33.2445 36.8216C30.5979 36.8216 27.4095 36.8634 22.5122 34.9625V30.9728C22.5122 30.9728 22.6164 27.4009 18.8862 27.2964C15.0934 27.1293 15.2185 31.0355 15.2185 31.0355V33.1035L2.02718 30.555C0.839335 27.9022 0.214156 24.9987 0.214156 21.9072C0.172478 19.1499 0.714301 16.5388 1.63123 14.1366Z" fill="#079D49"/>
<path d="M38.1419 30.367C39.4548 30.5968 39.8299 31.5786 39.8299 31.5786C41.2886 31.683 43.0808 31.3906 43.6852 31.1399C44.2687 30.9101 44.2687 30.4088 44.4145 29.8866C44.5812 29.3853 46.1442 29.1137 46.1442 29.1137L46.0192 31.2235C46.0192 31.2235 44.7063 32.6857 40.7051 32.9572C36.6831 33.187 33.7031 32.059 33.7031 32.059V30.0537C33.7031 30.0328 36.8499 30.1372 38.1419 30.367Z" fill="#231F20"/>
<path d="M30.4935 9.4158L35.1198 9.52024C37.8498 9.58291 40.288 11.2749 41.2674 13.8651C41.976 15.6197 42.6428 17.4161 43.268 19.1708C43.8723 20.821 44.4767 22.5547 44.5392 24.3511C44.6017 26.4191 43.8098 27.4427 41.6634 27.5053L35.7033 27.6098C34.1195 27.6515 32.7025 26.5027 32.4315 24.936L30.3059 13.5726C30.3059 13.5726 32.7858 12.6744 33.4944 13.9277C34.2029 15.1811 32.3065 14.2411 32.5357 16.4553C32.7858 18.6903 33.3902 19.4632 34.4113 19.4841C35.4324 19.5259 36.266 17.8339 36.0367 15.8704C35.8075 13.9277 34.9948 10.502 29.9308 12.1731L29.6391 10.4811C29.5557 9.89624 29.9725 9.4158 30.4935 9.4158Z" fill="#231F20"/>
<path d="M1.19321 15.3481C6.69479 14.0113 15.5307 12.194 25.0542 10.502C25.9503 10.3349 26.7839 10.9406 26.9089 11.8389L28.0968 20.069C28.201 20.8001 27.6591 21.4476 26.9089 21.4476L0.213761 21.8654C0.192921 19.5676 0.547189 17.3952 1.19321 15.3481Z" fill="#231F20"/>
<path d="M16.1562 32.4977C16.1562 34.691 17.3649 36.4874 18.8237 36.4874C20.3241 36.4874 21.4911 34.691 21.4911 32.4977C21.4911 30.3044 20.2824 28.508 18.8237 28.508C17.3441 28.508 16.1562 30.3044 16.1562 32.4977ZM17.6567 32.4977C17.6567 31.5786 18.0735 30.8057 18.5736 30.8057C19.0738 30.8057 19.4905 31.5786 19.4905 32.4977C19.4905 33.4168 19.0738 34.1897 18.5736 34.1897C18.0735 34.1897 17.6567 33.4586 17.6567 32.4977Z" fill="#231F20"/>
<path d="M39.3087 32.4977C39.3087 32.4977 38.9961 31.1817 37.9958 31.0355C37.0164 30.8683 34.3906 30.7848 34.3906 30.7848V31.6412C34.4115 31.6621 36.5788 32.3932 39.3087 32.4977Z" fill="white"/>
<path d="M46.1647 29.6986C46.1647 29.6986 44.9768 30.0119 44.7893 30.4924C44.6017 30.9728 44.5601 31.4741 44.5601 31.4741L46.1438 30.8057V29.6986H46.1647Z" fill="white"/>
</svg>
