<svg width="48" height="44" viewBox="0 0 48 44" fill="none" xmlns="http://www.w3.org/2000/svg">
<path d="M26.2399 43.2971C38.0253 43.2971 47.5793 33.7205 47.5793 21.9072C47.5793 10.0938 38.0253 0.517242 26.2399 0.517242C14.4544 0.517242 4.90039 10.0938 4.90039 21.9072C4.90039 33.7205 14.4544 43.2971 26.2399 43.2971Z" fill="white"/>
<path d="M26.2399 43.2971C38.0253 43.2971 47.5793 33.7205 47.5793 21.9072C47.5793 10.0938 38.0253 0.517242 26.2399 0.517242C14.4544 0.517242 4.90039 10.0938 4.90039 21.9072C4.90039 33.7205 14.4544 43.2971 26.2399 43.2971Z" fill="white"/>
<path d="M26.2399 43.2971C38.0253 43.2971 47.5793 33.7205 47.5793 21.9072C47.5793 10.0938 38.0253 0.517242 26.2399 0.517242C14.4544 0.517242 4.90039 10.0938 4.90039 21.9072C4.90039 33.7205 14.4544 43.2971 26.2399 43.2971Z" fill="white"/>
<path d="M46.1204 14.1366C37.9931 11.8598 29.6157 10.1469 21.3425 8.89357C18.4666 8.45491 15.6325 8.41314 12.7358 8.35047C9.96418 8.24603 7.38011 9.81267 6.15059 12.2984L5.10862 14.4082C5.10862 14.4082 3.10805 13.9695 2.39951 14.0322C1.00328 14.1366 0.128025 16.5179 0.00298905 18.5023C-0.101208 20.4867 1.87853 20.7374 2.337 19.3379C2.77462 17.9383 2.98302 16.7895 1.62846 16.685C1.62846 16.685 1.69098 14.8886 4.42093 15.8286C4.42093 15.8286 2.48287 21.3432 1.94105 23.8498C1.39923 26.3355 1.4409 31.7666 2.19112 33.6257C3.44148 36.5292 13.8195 36.8216 14.5072 36.8216C17.1537 36.8216 20.3422 36.8634 25.2394 34.9625V30.9728C25.2394 30.9728 25.1352 27.4009 28.8654 27.2964C32.5957 27.192 32.4915 31.0981 32.4915 31.0981V33.1661L45.6828 30.6177C46.8706 27.9649 47.4958 25.0613 47.4958 21.9698C47.5792 19.1499 47.079 16.5388 46.1204 14.1366Z" fill="#939598"/>
<path d="M9.63071 30.367C8.31783 30.5968 7.94273 31.5786 7.94273 31.5786C6.48397 31.683 4.69179 31.3906 4.08745 31.1399C3.50395 30.9101 3.50395 30.4088 3.35808 29.8866C3.19136 29.3853 1.62842 29.1137 1.62842 29.1137L1.75346 31.2235C1.75346 31.2235 3.06633 32.6857 7.06748 32.9572C11.0895 33.187 14.0695 32.059 14.0695 32.059V30.0537C14.0486 30.0328 10.9019 30.1372 9.63071 30.367Z" fill="#231F20"/>
<path d="M18.1333 10.4393L17.8416 12.1313C12.7776 10.4811 11.9441 13.8859 11.7357 15.8286C11.5064 17.7712 12.34 19.4632 13.3611 19.4423C14.3823 19.4005 15.0074 18.6485 15.2367 16.4134C15.4867 14.1784 13.5904 15.0975 14.2781 13.8859C14.9866 12.6326 17.4665 13.5308 17.4665 13.5308L15.3409 24.8942C15.0491 26.4817 13.6529 27.6097 12.0691 27.568L6.10906 27.4635C4.00429 27.4217 3.17072 26.4191 3.23324 24.3093C3.29575 22.5129 3.90009 20.8001 4.50443 19.129C5.15045 17.3325 5.77563 15.5779 6.50501 13.8233C7.48446 11.2749 9.92265 9.5411 12.6526 9.47844L17.2789 9.37399C17.7999 9.41577 18.2167 9.89621 18.1333 10.4393Z" fill="#231F20"/>
<path d="M46.5582 15.3481C41.0566 14.0113 32.2415 12.194 22.718 10.502C21.8219 10.3349 20.9883 10.9406 20.8633 11.8389L19.6754 20.069C19.5712 20.8001 20.1131 21.4476 20.8633 21.4476L47.5584 21.8654C47.5793 19.5676 47.2042 17.3952 46.5582 15.3481Z" fill="#231F20"/>
<path d="M28.9282 28.508C27.4277 28.508 26.2607 30.3044 26.2607 32.4977C26.2607 34.691 27.4694 36.4874 28.9282 36.4874C30.3869 36.4874 31.5956 34.691 31.5956 32.4977C31.5956 30.3044 30.4286 28.508 28.9282 28.508ZM29.1782 34.1897C28.6781 34.1897 28.2613 33.4168 28.2613 32.4977C28.2613 31.5786 28.6781 30.8057 29.1782 30.8057C29.6784 30.8057 30.0952 31.5786 30.0952 32.4977C30.0952 33.4168 29.6784 34.1897 29.1782 34.1897Z" fill="#231F20"/>
<path d="M8.44287 32.4977C8.44287 32.4977 8.75547 31.1817 9.75576 31.0355C10.7352 30.8683 13.361 30.7848 13.361 30.7848V31.6412C13.3401 31.6621 11.1937 32.3932 8.44287 32.4977Z" fill="white"/>
<path d="M1.62842 29.6986C1.62842 29.6986 2.81625 30.0119 3.00381 30.4924C3.19136 30.9728 3.23303 31.4741 3.23303 31.4741L1.64926 30.8057V29.6986H1.62842Z" fill="white"/>
</svg>
